<svg width="1200" height="1500" viewBox="0 0 1200 1500" fill="none" xmlns="http://www.w3.org/2000/svg">
  <defs>
    <linearGradient id="t1" x1="0" y1="0" x2="1200" y2="1500" gradientUnits="userSpaceOnUse">
      <stop stop-color="#10151A" />
      <stop offset="1" stop-color="#4F6B76" />
    </linearGradient>
  </defs>
  <rect width="1200" height="1500" fill="url(#t1)" />
  <path d="M0 720C160 630 260 730 430 680C640 620 760 760 940 720C1030 700 1110 650 1200 630V1110H0V720Z" fill="#BFDFF2" fill-opacity="0.15" />
  <path d="M0 980C180 900 340 1000 500 960C700 910 820 1030 1000 980C1070 960 1140 920 1200 900V1220H0V980Z" fill="#BFDFF2" fill-opacity="0.12" />
  <path d="M0 1210C260 1130 520 1310 740 1240C970 1170 1070 1040 1200 1000V1500H0V1210Z" fill="#0A0F15" fill-opacity="0.72" />
  <text x="120" y="1390" fill="#D9ECFA" fill-opacity="0.95" font-size="58" font-family="Georgia, serif">
    Travel Documentary Java
  </text>
</svg>
